<?xml version="1.0" standalone="no"?>
<!DOCTYPE svg PUBLIC "-//W3C//DTD SVG 20010904//EN"
 "http://www.w3.org/TR/2001/REC-SVG-20010904/DTD/svg10.dtd">
<svg version="1.0" xmlns="http://www.w3.org/2000/svg"
 width="323.000000pt" height="323.000000pt" viewBox="0 0 323.000000 323.000000"
 preserveAspectRatio="xMidYMid meet">
<metadata>
Created by potrace 1.14, written by Peter Selinger 2001-2017
</metadata>
<g transform="translate(0.000000,323.000000) scale(0.100000,-0.100000)"
fill="#000000" stroke="none">
<path d="M2025 3185 c-178 -48 -326 -153 -418 -296 -54 -85 -66 -130 -59 -229
11 -162 5 -376 -12 -470 -10 -50 -26 -155 -26 -167 0 -18 27 -16 89 7 183 70
332 191 438 358 81 126 141 297 162 462 10 81 8 304 -4 333 -9 21 -94 23 -170
2z"/>
<path d="M2535 3089 c-4 -6 -9 -36 -12 -67 -29 -365 -249 -744 -566 -977 -44
-31 -75 -60 -70 -64 4 -4 33 -15 63 -25 102 -33 254 -115 337 -181 46 -36 87
-65 91 -65 5 0 33 28 63 61 30 34 62 71 73 83 104 118 221 291 276 409 52 113
70 200 66 317 -8 199 -96 370 -249 484 -52 39 -62 42 -72 25z"/>
<path d="M678 2991 c-123 -39 -223 -123 -273 -228 -31 -66 -34 -77 -42 -153
-13 -135 41 -266 156 -380 152 -149 328 -221 616 -251 119 -13 147 -9 162 24
11 24 11 302 0 365 -4 18 -9 52 -12 75 -19 132 -70 281 -125 367 -42 66 -108
123 -187 162 -55 27 -77 32 -151 34 -63 2 -103 -2 -144 -15z"/>
<path d="M522 1918 c145 -176 494 -528 522 -528 37 0 206 297 206 360 0 27
-26 38 -95 37 -187 -1 -386 48 -556 134 -53 27 -102 49 -108 49 -7 0 7 -24 31
-52z"/>
<path d="M1508 1822 c-43 -4 -52 -16 -63 -82 -4 -25 -14 -72 -22 -105 -8 -33
-16 -67 -18 -75 -9 -42 -62 -175 -101 -253 -24 -49 -44 -94 -44 -101 0 -8 30
-41 68 -73 37 -33 101 -90 142 -126 41 -37 82 -67 90 -67 8 0 38 22 66 48 147
135 391 356 474 428 92 80 93 93 3 183 -75 75 -132 116 -212 154 -110 54 -256
80 -383 69z"/>
<path d="M1392 899 c-26 -10 -24 15 -23 -300 0 -130 4 -247 9 -260 15 -37 46
-60 91 -66 42 -6 46 -2 53 41 2 12 -7 25 -27 36 l-30 17 -5 264 c-3 145 -7
265 -8 265 -12 8 -42 9 -60 3z"/>
<path d="M378 879 c-17 -9 -18 -35 -18 -304 0 -270 1 -295 18 -303 9 -4 23 -7
30 -6 6 1 19 2 27 3 12 1 15 27 17 144 l3 142 67 0 c89 -1 99 -11 134 -138 17
-63 36 -110 50 -124 30 -29 91 -41 111 -20 21 21 10 67 -17 67 -25 0 -45 32
-60 100 -19 81 -38 119 -75 156 l-33 32 29 54 c106 194 110 208 48 208 -33 0
-45 -16 -118 -152 l-53 -98 -44 0 -44 0 0 119 c0 99 -3 120 -16 125 -22 8 -36
7 -56 -5z"/>
<path d="M1016 728 c-52 -14 -128 -90 -144 -144 -48 -162 53 -313 213 -319 57
-2 132 19 165 47 17 15 18 21 8 43 -14 30 -23 31 -79 5 -56 -25 -92 -25 -145
1 -32 15 -48 32 -64 64 -12 25 -19 49 -16 54 3 5 73 9 155 9 83 0 155 3 161 7
5 3 10 21 10 38 0 77 -41 152 -100 182 -37 19 -117 25 -164 13z m107 -72 c29
-7 67 -57 67 -88 0 -16 -12 -18 -115 -18 -126 0 -133 4 -98 57 17 26 87 64
107 58 6 -2 24 -6 39 -9z"/>
<path d="M1729 725 c-154 -49 -204 -272 -87 -393 68 -70 192 -87 287 -40 35
18 46 28 46 47 0 38 -28 49 -67 26 -78 -46 -192 -15 -224 61 -26 62 -28 61
137 62 92 0 156 5 164 12 17 14 10 80 -14 135 -37 84 -139 122 -242 90z m128
-77 c22 -11 29 -21 43 -70 l9 -28 -119 0 -120 0 11 27 c29 77 105 108 176 71z"/>
<path d="M2590 719 c-69 -24 -81 -40 -57 -74 14 -17 16 -17 80 0 37 10 77 15
91 11 37 -9 66 -41 66 -74 0 -26 -2 -27 -57 -30 -127 -6 -214 -53 -227 -124
-16 -90 39 -156 137 -163 49 -3 82 9 122 47 l31 28 2 -27 c2 -31 18 -44 47
-38 11 2 24 4 28 4 5 1 7 82 5 180 -3 163 -5 182 -24 208 -46 63 -149 85 -244
52z m180 -256 c0 -87 -86 -151 -158 -116 -53 26 -50 96 7 124 26 13 129 28
144 21 4 -2 7 -15 7 -29z"/>
<path d="M2046 717 c-13 -11 -4 -39 75 -225 l89 -213 -16 -37 c-29 -62 -42
-72 -95 -72 -39 0 -50 -4 -60 -22 -10 -19 -8 -24 12 -41 19 -15 35 -18 77 -15
76 7 108 41 162 176 23 59 48 121 55 137 41 97 115 289 115 301 0 8 -6 14 -12
15 -7 0 -23 2 -34 4 -32 7 -46 -17 -105 -177 -47 -130 -69 -173 -69 -137 0 14
-108 291 -117 300 -14 14 -61 17 -77 6z"/>
</g>
</svg>
